<?xml version="1.0" encoding="utf-8"?>
<!-- Generator: Adobe Illustrator 16.0.0, SVG Export Plug-In . SVG Version: 6.00 Build 0)  -->
<!DOCTYPE svg PUBLIC "-//W3C//DTD SVG 1.1//EN" "http://www.w3.org/Graphics/SVG/1.1/DTD/svg11.dtd">
<svg version="1.1" id="Layer_1" xmlns="http://www.w3.org/2000/svg" xmlns:xlink="http://www.w3.org/1999/xlink" x="0px" y="0px"
	 width="180px" height="285px" viewBox="0 0 180 285" enable-background="new 0 0 180 285" xml:space="preserve">
<g>
	<polygon fill="#90BF00" points="125.072,175.418 52.598,141.411 39.748,169.042 34.094,183.559 44.888,197.951 85.495,218.511 
		98.859,216.455 109.141,206.175 	"/>
	<polygon fill="#FFFFFF" points="57.738,157.857 47.458,179.445 98.346,202.577 108.626,180.475 	"/>
	<polygon fill="#FF5E01" points="71.617,100.804 144.093,133.7 156.941,106.972 155.4,91.037 144.55,80.121 111.123,64.53 
		96.29,63.281 86.009,70.477 	"/>
	<g>
		<g>
			<g>
				<path d="M142.447,62.168l-16.213-7.564c-4.746-2.215-10.405-0.157-12.619,4.59l-2.492,5.337
					c-0.355,0.759-0.395,1.629-0.105,2.419c0.287,0.789,0.873,1.431,1.637,1.787l27.688,12.917c0.76,0.356,1.631,0.394,2.42,0.105
					c0.791-0.288,1.432-0.877,1.789-1.638l2.489-5.335C149.253,70.041,147.193,64.381,142.447,62.168z M141.298,72.108l-1.149,2.467
					L118.2,64.334l1.149-2.467c0.74-1.576,2.625-2.27,4.207-1.53l16.211,7.565C141.35,68.641,142.036,70.527,141.298,72.108z"/>
			</g>
		</g>
		<g>
			<g>
				<path d="M145.085,76.879l-31.826-14.848c-6.13-2.86-13.004-3.163-19.362-0.851c-6.354,2.312-11.429,6.961-14.288,13.092
					L68.31,98.489c-0.358,0.76-0.395,1.629-0.107,2.42c0.288,0.792,0.875,1.431,1.637,1.787l71.98,33.585
					c0.793,0.369,1.66,0.383,2.422,0.104c0.762-0.278,1.416-0.846,1.785-1.637l11.299-24.217
					C163.227,97.88,157.734,82.781,145.085,76.879z M151.589,107.855l-9.961,21.35L75.384,98.297l9.961-21.346
					c2.146-4.597,5.951-8.083,10.715-9.817c4.771-1.734,9.926-1.508,14.521,0.639l31.824,14.846
					C151.895,87.045,156.014,98.368,151.589,107.855z"/>
			</g>
		</g>
		<g>
			<g>
				<path d="M118.473,77.948l-11.076-5.171c-6.162-2.872-13.508-0.201-16.381,5.958l-5.167,11.08
					c-0.741,1.587-0.057,3.468,1.53,4.207c1.586,0.74,3.47,0.056,4.207-1.53l5.167-11.079c1.398-2.996,4.973-4.296,7.967-2.899
					l11.077,5.172c0.791,0.369,1.66,0.383,2.421,0.107c0.76-0.277,1.415-0.845,1.786-1.638
					C120.743,80.57,120.061,78.689,118.473,77.948z"/>
			</g>
		</g>
		<g>
			<g>
				<path d="M79.724,211.575l-27.686-12.917c-0.76-0.357-1.632-0.396-2.421-0.107c-0.788,0.287-1.43,0.874-1.786,1.637l-2.489,5.336
					c-2.214,4.746-0.156,10.406,4.591,12.619l16.212,7.564c2.374,1.107,4.975,1.146,7.26,0.314c2.284-0.832,4.253-2.532,5.357-4.904
					l2.493-5.336c0.356-0.762,0.395-1.629,0.106-2.422C81.074,212.572,80.487,211.932,79.724,211.575z M73.033,218.436
					c-0.741,1.575-2.624,2.269-4.207,1.53l-16.212-7.563c-1.582-0.739-2.268-2.625-1.53-4.207l1.15-2.467l21.95,10.24
					L73.033,218.436z"/>
			</g>
		</g>
		<g>
			<g>
				<path d="M125.121,172.066l-71.979-33.582c-1.522-0.711-3.497,0.008-4.207,1.529l-13.883,29.757
					c-5.902,12.651-0.409,27.75,12.241,33.651l31.825,14.849c6.13,2.86,13.005,3.164,19.362,0.851
					c6.356-2.312,11.432-6.96,14.291-13.095l13.879-29.754C127.393,174.688,126.708,172.807,125.121,172.066z M107.033,203.355
					c-2.145,4.597-5.949,8.084-10.717,9.816c-4.769,1.735-9.924,1.508-14.521-0.637l-31.825-14.85
					c-9.486-4.426-13.604-15.746-9.18-25.236l12.544-26.887l66.24,30.906L107.033,203.355z"/>
			</g>
		</g>
		<g>
			<g>
				<path d="M83.968,115.784c-4.495-2.094-10.237-0.009-12.329,4.485l-11.628,24.917c-0.356,0.76-0.394,1.629-0.106,2.42
					c0.289,0.791,0.874,1.431,1.637,1.787l11.072,5.164c0.791,0.37,1.658,0.385,2.42,0.107c0.762-0.277,1.417-0.848,1.792-1.639
					l11.624-24.917c1.047-2.244,1.158-4.764,0.311-7.092C87.915,118.688,86.211,116.831,83.968,115.784z M82.705,125.434
					L72.418,147.48l-5.334-2.488l10.286-22.047c0.663-1.428,2.484-2.09,3.914-1.42c0.709,0.331,1.25,0.919,1.518,1.657
					C83.071,123.922,83.039,124.719,82.705,125.434z"/>
			</g>
		</g>
		<g>
			<g>
				<path d="M122.725,133.866c-4.639-2.164-10.168-0.157-12.33,4.484l-11.623,24.916c-0.356,0.758-0.396,1.629-0.106,2.42
					c0.288,0.791,0.874,1.432,1.638,1.787l11.072,5.166c0.791,0.368,1.658,0.383,2.419,0.104c0.763-0.275,1.419-0.843,1.788-1.634
					l11.627-24.916C129.368,141.559,127.357,136.03,122.725,133.866z M121.467,143.518l-10.285,22.045l-5.334-2.487l10.284-22.048
					c0.666-1.429,2.486-2.09,3.912-1.423C121.514,140.289,122.15,142.047,121.467,143.518z"/>
			</g>
		</g>
		<g>
			<g>
				<path d="M108.882,177.977L59.05,154.729c-1.586-0.739-3.467-0.056-4.206,1.531l-10.333,22.147
					c-0.741,1.586-0.057,3.467,1.53,4.206l49.834,23.248c0.791,0.369,1.659,0.384,2.421,0.105c0.759-0.275,1.414-0.844,1.783-1.636
					l10.334-22.147C111.152,180.6,110.469,178.718,108.882,177.977z M95.682,198.788l-44.096-20.572l7.657-16.412l44.094,20.572
					L95.682,198.788z"/>
			</g>
		</g>
		<g>
			<g>
				<path d="M87.106,181.305l-16.611-7.754c-1.586-0.74-3.467-0.056-4.207,1.53c-0.74,1.585-0.056,3.466,1.53,4.207l16.611,7.752
					c0.792,0.369,1.659,0.383,2.42,0.106c0.762-0.277,1.418-0.847,1.787-1.638C89.376,183.923,88.692,182.042,87.106,181.305z"/>
			</g>
		</g>
	</g>
	<g>
		<path fill="#FFFFFF" d="M132.248,60.741c0,0,15.335-7.265,9.971-30.714c-4.142-18.101,4.559-22.152,13.565-25.362"/>
		<path d="M133.764,63.938l-3.029-6.395l1.515,3.197l-1.543-3.185c0.521-0.258,12.685-6.551,8.063-26.74
			c-4.653-20.344,5.729-25.886,15.828-29.484l2.375,6.666c-7.687,2.739-14.945,5.325-11.305,21.24
			C151.6,55.158,133.941,63.854,133.764,63.938z"/>
	</g>
	<g>
		<path fill="#FFFFFF" d="M59.643,219.359c0,0-15.372,4.418-16.986,33.88c-1.392,25.413-24.617,28.247-24.617,28.247"/>
		<path d="M18.469,285l-0.857-7.025c0.816-0.104,20.305-2.886,21.512-24.929c1.732-31.608,18.815-36.878,19.542-37.087l0.978,3.4
			l1.028,3.386c-0.532,0.171-13.045,4.483-14.481,30.688C44.654,281.482,18.731,284.968,18.469,285z"/>
	</g>
</g>
</svg>
